<?xml version="1.0" encoding="UTF-8"?>
<svg id="Warstwa_1" xmlns="http://www.w3.org/2000/svg" version="1.1" viewBox="0 0 587.97 186.66">
  <!-- Generator: Adobe Illustrator 29.5.1, SVG Export Plug-In . SVG Version: 2.1.0 Build 141)  -->
  <path d="M0,128.38v22.66c30.01-30.36,55.71-64.3,100.69-51.35,46.23,13.31,83.73,53.38,120.14,86.96h42.76c-48.17-35.78-85.73-92.74-143.54-112.45C64.92,55.42,37.96,96.69,0,128.38ZM58.68,138.19c-23.58,3.98-41.92,27.88-57.09,48.47h13.01c8.26-9.79,18.3-18.73,29.71-21.89,16.69-4.6,36.9,1.66,52.83,7.89,9.93,3.89,19.64,8.67,29.07,14h49.43c-13.92-10.41-28.45-19.94-43.5-28.02-20.78-11.17-50.27-24.35-73.46-20.45ZM517.09,117.81c-22.46-9.46-53.87,11.85-73.02,24.62-21.87,14.58-42.61,31.4-65.37,44.23h16.81c17.87-12.59,35.78-25.52,54.69-35.98,35.94-19.86,62.98-22.46,81.69,23.49,1.58,3.88,3.25,8.21,4.24,12.48h18.64c-3.89-25.16-15.56-59.52-37.69-68.85ZM430.08,173.65c-6.76,4.07-13.36,8.46-19.88,13.01h18.17c21.7-12.25,50.73-20.81,69.52,0h24.2c-1.5-3.9-3.43-7.57-5.61-11.01-24.02-37.86-57.23-19.6-86.39-1.99ZM560.53,93.08c-22.9-36.39-48.66-20.96-76.21-2.17-32.12,21.89-58.89,48.63-95.02,63.49C278.43,199.97,235.67,57.38,152.55,11.84c-51.07-27.98-83.29,4.57-126.54,30.23-8.54,5.07-17.2,9.94-26.01,14.42v25.49c9.04-5.3,17.93-10.93,26.72-16.78,21.48-14.29,46.09-36.07,71.9-37.12,64.21-2.59,122.4,97.67,172.72,134.96,57.83,42.87,112.68,11.46,164.7-24.83,28.51-19.88,77.04-65.44,106.63-26,14.74,19.64,21.13,49.18,25.13,74.44h19.28c-7.9-31.01-9.79-66.94-26.55-93.58Z"/>
</svg>