<?xml version="1.0" encoding="UTF-8"?>
<svg id="Warstwa_1" xmlns="http://www.w3.org/2000/svg" version="1.1" viewBox="0 0 16 16">
  <!-- Generator: Adobe Illustrator 29.5.1, SVG Export Plug-In . SVG Version: 2.1.0 Build 141)  -->
  <defs>
    <style>
      .st0 {
        fill: #fff;
      }

      .st1 {
        fill: #e40429;
      }

      .st2 {
        fill: none;
        stroke: #e40522;
        stroke-miterlimit: 10;
        stroke-width: .02px;
      }
    </style>
  </defs>
  <path class="st1" d="M10.27,3.27c-.96,0-1.83.4-2.45,1.04h0s-.93.93-.93.93l-.93-.93h0c-.62-.64-1.49-1.04-2.45-1.04C1.62,3.27.09,4.8.09,6.69c0,1.11.58,2.02,1.36,2.72l.63.63h0s4.8,4.81,4.8,4.81h0s0,0,0,0l4.8-4.8h0s.63-.64.63-.64c.78-.71,1.36-1.61,1.36-2.72,0-1.89-1.53-3.42-3.42-3.42"/>
  <path class="st2" d="M10.27,3.27c-.96,0-1.83.4-2.45,1.04h0s-.93.93-.93.93l-.93-.93h0c-.62-.64-1.49-1.04-2.45-1.04C1.62,3.27.09,4.8.09,6.69c0,1.11.58,2.02,1.36,2.72l.63.63h0s4.8,4.81,4.8,4.81h0s0,0,0,0l4.8-4.8h0s.63-.64.63-.64c.78-.71,1.36-1.61,1.36-2.72,0-1.89-1.53-3.42-3.42-3.42Z"/>
  <polygon class="st0" points="9.98 3.27 15.93 3.27 15.93 4.21 11.91 4.21 11.91 4.84 14.55 4.84 14.55 5.77 11.91 5.77 11.91 6.39 16.01 6.39 16.01 7.33 9.98 7.33 9.98 3.27"/>
</svg>