<svg width="606" height="120" viewBox="0 0 606 120" fill="none" xmlns="http://www.w3.org/2000/svg">
<g filter="url(#filter0_d_337_38022)">
<path d="M56.8 111.67C46.56 111.67 37.44 109.87 29.44 106.27C21.52 102.59 15.28 97.47 10.72 90.91C6.23997 84.27 3.99997 76.47 3.99997 67.51C3.99997 58.55 6.23997 50.79 10.72 44.23C15.28 37.67 21.52 32.59 29.44 28.99C37.44 25.39 46.56 23.59 56.8 23.59C65.76 23.59 73.64 24.87 80.44 27.43C87.24 29.99 92.84 33.51 97.24 37.99C101.64 42.39 104.6 47.35 106.12 52.87L84.64 58.03C82.96 53.87 80.72 50.63 77.92 48.31C75.12 45.91 71.92 44.23 68.32 43.27C64.8 42.31 61.08 41.83 57.16 41.83C51.88 41.83 47.04 42.75 42.64 44.59C38.24 46.35 34.72 49.03 32.08 52.63C29.52 56.23 28.24 60.79 28.24 66.31V68.71C28.24 74.15 29.52 78.71 32.08 82.39C34.72 85.99 38.24 88.71 42.64 90.55C47.04 92.31 51.88 93.19 57.16 93.19C61.08 93.19 64.8 92.71 68.32 91.75C71.92 90.79 75.12 89.15 77.92 86.83C80.72 84.43 82.96 81.15 84.64 76.99L106.12 82.15C104.6 87.67 101.64 92.67 97.24 97.15C92.84 101.55 87.24 105.07 80.44 107.71C73.64 110.35 65.76 111.67 56.8 111.67ZM134.761 111.67C130.081 111.67 126.225 110.543 123.191 108.29C120.245 106.037 117.905 102.917 116.171 98.93C114.525 94.9433 113.355 90.3067 112.661 85.02C112.055 79.6466 111.751 73.8833 111.751 67.73C111.751 58.0233 112.401 49.8333 113.701 43.16C115.088 36.4866 117.471 31.4167 120.851 27.95C124.231 24.4833 128.825 22.75 134.631 22.75C139.225 22.75 142.995 23.79 145.941 25.87C148.975 27.8633 151.358 30.81 153.091 34.71C154.911 38.61 156.211 43.3333 156.991 48.88C157.771 54.4267 158.161 60.7967 158.161 67.99C158.161 74.23 157.771 80.0367 156.991 85.41C156.298 90.6967 155.041 95.3333 153.221 99.32C151.488 103.22 149.105 106.253 146.071 108.42C143.038 110.587 139.268 111.67 134.761 111.67ZM134.761 101.79C137.188 101.79 139.268 100.663 141.001 98.41C142.735 96.1567 144.035 92.4733 144.901 87.36C145.855 82.16 146.331 75.2267 146.331 66.56C146.331 58.5867 145.855 52.13 144.901 47.19C144.035 42.1633 142.735 38.48 141.001 36.14C139.268 33.8 137.101 32.63 134.501 32.63C132.248 32.63 130.298 33.7133 128.651 35.88C127.005 37.96 125.748 41.4266 124.881 46.28C124.015 51.1333 123.581 57.7633 123.581 66.17C123.581 72.8433 123.841 78.4767 124.361 83.07C124.881 87.5767 125.618 91.2167 126.571 93.99C127.525 96.7633 128.695 98.7567 130.081 99.97C131.468 101.183 133.028 101.79 134.761 101.79ZM227.592 111.54C222.566 111.54 218.449 110.673 215.242 108.94C212.122 107.207 209.739 104.867 208.092 101.92C206.532 98.9733 205.622 95.7233 205.362 92.17C205.189 88.53 205.492 84.89 206.272 81.25L216.932 80.08C216.326 84.1533 216.239 87.88 216.672 91.26C217.106 94.5533 218.232 97.1967 220.052 99.19C221.872 101.097 224.472 102.05 227.852 102.05C229.846 102.05 231.622 101.66 233.182 100.88C234.742 100.013 235.956 98.7133 236.822 96.98C237.776 95.16 238.252 92.7333 238.252 89.7C238.252 85.9733 237.646 82.94 236.432 80.6C235.219 78.26 233.486 76.2233 231.232 74.49C229.066 72.67 226.466 70.9367 223.432 69.29C221.092 67.8166 218.839 66.3433 216.672 64.87C214.506 63.31 212.556 61.5766 210.822 59.67C209.089 57.7633 207.746 55.5533 206.792 53.04C205.839 50.5266 205.362 47.6233 205.362 44.33C205.362 40.17 206.142 36.4866 207.702 33.28C209.349 29.9867 211.776 27.43 214.982 25.61C218.276 23.79 222.349 22.88 227.202 22.88C232.576 22.88 236.909 24.05 240.202 26.39C243.496 28.6433 245.792 31.8066 247.092 35.88C248.479 39.9533 248.826 44.72 248.132 50.18L237.342 51.35C237.689 48.75 237.732 46.3233 237.472 44.07C237.212 41.8166 236.649 39.8233 235.782 38.09C235.002 36.3567 233.876 35.0133 232.402 34.06C230.929 33.1066 229.152 32.63 227.072 32.63C224.906 32.63 223.042 33.1066 221.482 34.06C220.009 34.9266 218.839 36.1833 217.972 37.83C217.192 39.4766 216.802 41.4267 216.802 43.68C216.802 46.8 217.496 49.4 218.882 51.48C220.269 53.56 222.002 55.3366 224.082 56.81C226.249 58.2833 228.372 59.5833 230.452 60.71C232.879 62.0966 235.262 63.6566 237.602 65.39C239.942 67.1233 242.022 69.0733 243.842 71.24C245.749 73.4066 247.222 75.9633 248.262 78.91C249.389 81.8567 249.952 85.3233 249.952 89.31C249.952 93.3833 249.216 97.11 247.742 100.49C246.356 103.87 244.016 106.557 240.722 108.55C237.516 110.543 233.139 111.54 227.592 111.54ZM255.095 66.04L290.585 51.48V61.75L255.095 76.44V66.04ZM262.895 110.11V24.31H274.595V110.11H262.895ZM267.055 110.11V99.71H297.605V110.11H267.055ZM310.485 110.11V81.9L290.985 24.31H304.245L316.465 71.24H317.115L328.815 24.31H341.555L322.445 82.03V110.11H310.485ZM366.227 111.54C361.634 111.54 357.777 110.543 354.657 108.55C351.624 106.47 349.197 103.523 347.377 99.71C345.644 95.81 344.387 91.1733 343.607 85.8C342.914 80.4267 342.567 74.4467 342.567 67.86C342.567 61.36 342.957 55.38 343.737 49.92C344.517 44.3733 345.817 39.6067 347.637 35.62C349.457 31.5467 351.927 28.4266 355.047 26.26C358.167 24.0066 362.024 22.88 366.617 22.88C370.604 22.88 373.941 23.7033 376.627 25.35C379.314 26.91 381.437 29.12 382.997 31.98C384.557 34.7533 385.597 38.09 386.117 41.99C386.724 45.8033 386.811 49.92 386.377 54.34L375.327 55.64C375.761 51.0466 375.674 47.0166 375.067 43.55C374.547 40.0833 373.507 37.44 371.947 35.62C370.474 33.7133 368.611 32.76 366.357 32.76C364.191 32.76 362.327 33.5833 360.767 35.23C359.294 36.79 358.081 39.0866 357.127 42.12C356.174 45.1533 355.437 48.7933 354.917 53.04C354.484 57.2 354.267 61.88 354.267 67.08C354.267 75.7467 354.744 82.6367 355.697 87.75C356.651 92.7767 357.994 96.3733 359.727 98.54C361.547 100.707 363.671 101.79 366.097 101.79C368.871 101.79 371.081 100.62 372.727 98.28C374.374 95.8533 375.457 92.5167 375.977 88.27C376.584 84.0233 376.584 79.1267 375.977 73.58L387.157 74.88C387.677 80.08 387.721 84.9333 387.287 89.44C386.854 93.86 385.814 97.76 384.167 101.14C382.607 104.433 380.354 106.99 377.407 108.81C374.461 110.63 370.734 111.54 366.227 111.54ZM429.004 110.11V24.31H440.574V110.11H429.004ZM396.114 110.11V24.31H407.684V110.11H396.114ZM403.004 71.24V61.23H433.814V71.24H403.004ZM444.779 110.11L486.299 24.91H511.739L553.259 110.11H527.699L518.339 89.95H478.139L468.899 110.11H444.779ZM485.819 73.63H510.899L498.419 46.75L485.819 73.63ZM579.916 111.54C575.323 111.54 571.466 110.543 568.346 108.55C565.313 106.47 562.886 103.523 561.066 99.71C559.333 95.81 558.076 91.1733 557.296 85.8C556.603 80.4267 556.256 74.4467 556.256 67.86C556.256 61.36 556.646 55.38 557.426 49.92C558.206 44.3733 559.506 39.6067 561.326 35.62C563.146 31.5467 565.616 28.4266 568.736 26.26C571.856 24.0066 575.713 22.88 580.306 22.88C584.293 22.88 587.63 23.7033 590.316 25.35C593.003 26.91 595.126 29.12 596.686 31.98C598.246 34.7533 599.286 38.09 599.806 41.99C600.413 45.8033 600.5 49.92 600.066 54.34L589.016 55.64C589.45 51.0466 589.363 47.0166 588.756 43.55C588.236 40.0833 587.196 37.44 585.636 35.62C584.163 33.7133 582.3 32.76 580.046 32.76C577.88 32.76 576.016 33.5833 574.456 35.23C572.983 36.79 571.77 39.0866 570.816 42.12C569.863 45.1533 569.126 48.7933 568.606 53.04C568.173 57.2 567.956 61.88 567.956 67.08C567.956 75.7467 568.433 82.6367 569.386 87.75C570.34 92.7767 571.683 96.3733 573.416 98.54C575.236 100.707 577.36 101.79 579.786 101.79C582.56 101.79 584.77 100.62 586.416 98.28C588.063 95.8533 589.146 92.5167 589.666 88.27C590.273 84.0233 590.273 79.1267 589.666 73.58L600.846 74.88C601.366 80.08 601.41 84.9333 600.976 89.44C600.543 93.86 599.503 97.76 597.856 101.14C596.296 104.433 594.043 106.99 591.096 108.81C588.15 110.63 584.423 111.54 579.916 111.54ZM582.126 16.38H572.636L579.006 -2.2769e-05H591.226L582.126 16.38Z" fill="white"/>
</g>
<defs>
<filter id="filter0_d_337_38022" x="0" y="0" width="605.626" height="119.67" filterUnits="userSpaceOnUse" color-interpolation-filters="sRGB">
<feFlood flood-opacity="0" result="BackgroundImageFix"/>
<feColorMatrix in="SourceAlpha" type="matrix" values="0 0 0 0 0 0 0 0 0 0 0 0 0 0 0 0 0 0 127 0" result="hardAlpha"/>
<feOffset dy="4"/>
<feGaussianBlur stdDeviation="2"/>
<feComposite in2="hardAlpha" operator="out"/>
<feColorMatrix type="matrix" values="0 0 0 0 0 0 0 0 0 0 0 0 0 0 0 0 0 0 0.25 0"/>
<feBlend mode="normal" in2="BackgroundImageFix" result="effect1_dropShadow_337_38022"/>
<feBlend mode="normal" in="SourceGraphic" in2="effect1_dropShadow_337_38022" result="shape"/>
</filter>
</defs>
</svg>
