<svg width="337" height="156" viewBox="0 0 337 156" fill="none" xmlns="http://www.w3.org/2000/svg">
<path d="M147.966 75.602C139.176 75.602 131.348 74.057 124.482 70.967C117.684 67.8083 112.328 63.4137 108.414 57.783C104.568 52.0837 102.646 45.3887 102.646 37.698C102.646 30.0073 104.568 23.3467 108.414 17.716C112.328 12.0853 117.684 7.725 124.482 4.63499C131.348 1.545 139.176 -1.13249e-06 147.966 -1.13249e-06C155.656 -1.13249e-06 162.42 1.09867 168.257 3.296C174.093 5.49333 178.9 8.51467 182.677 12.36C186.453 16.1367 188.994 20.394 190.299 25.132L171.862 29.561C170.42 25.9903 168.497 23.2093 166.094 21.218C163.69 19.158 160.944 17.716 157.854 16.892C154.832 16.068 151.639 15.656 148.275 15.656C143.743 15.656 139.588 16.4457 135.812 18.025C132.035 19.5357 129.014 21.836 126.748 24.926C124.55 28.016 123.452 31.93 123.452 36.668V38.728C123.452 43.3973 124.55 47.3113 126.748 50.47C129.014 53.56 132.035 55.8947 135.812 57.474C139.588 58.9847 143.743 59.74 148.275 59.74C151.639 59.74 154.832 59.328 157.854 58.504C160.944 57.68 163.69 56.2723 166.094 54.281C168.497 52.221 170.42 49.4057 171.862 45.835L190.299 50.264C188.994 55.002 186.453 59.2937 182.677 63.139C178.9 66.9157 174.093 69.937 168.257 72.203C162.42 74.469 155.656 75.602 147.966 75.602ZM214.534 75.583C210.574 75.583 207.311 74.6297 204.744 72.723C202.251 70.8163 200.271 68.1763 198.804 64.803C197.411 61.4297 196.421 57.5063 195.834 53.033C195.321 48.4863 195.064 43.6097 195.064 38.403C195.064 30.1897 195.614 23.2597 196.714 17.613C197.887 11.9663 199.904 7.67633 202.764 4.743C205.624 1.80966 209.511 0.342995 214.424 0.342995C218.311 0.342995 221.501 1.223 223.994 2.983C226.561 4.66967 228.577 7.163 230.044 10.463C231.584 13.763 232.684 17.7597 233.344 22.453C234.004 27.1463 234.334 32.5363 234.334 38.623C234.334 43.903 234.004 48.8163 233.344 53.363C232.757 57.8363 231.694 61.7597 230.154 65.133C228.687 68.433 226.671 70.9997 224.104 72.833C221.537 74.6663 218.347 75.583 214.534 75.583ZM214.534 67.223C216.587 67.223 218.347 66.2697 219.814 64.363C221.281 62.4563 222.381 59.3397 223.114 55.013C223.921 50.613 224.324 44.7463 224.324 37.413C224.324 30.6663 223.921 25.203 223.114 21.023C222.381 16.7697 221.281 13.653 219.814 11.673C218.347 9.693 216.514 8.703 214.314 8.703C212.407 8.703 210.757 9.61966 209.364 11.453C207.971 13.213 206.907 16.1463 206.174 20.253C205.441 24.3597 205.074 29.9697 205.074 37.083C205.074 42.7297 205.294 47.4963 205.734 51.383C206.174 55.1963 206.797 58.2763 207.604 60.623C208.411 62.9697 209.401 64.6563 210.574 65.683C211.747 66.7097 213.067 67.223 214.534 67.223ZM19.0301 155.473C14.7768 155.473 11.2934 154.74 8.58009 153.273C5.94009 151.806 3.92342 149.826 2.53009 147.333C1.21009 144.84 0.440087 142.09 0.220087 139.083C0.07342 136.003 0.330087 132.923 0.990087 129.843L10.0101 128.853C9.49675 132.3 9.42342 135.453 9.79009 138.313C10.1568 141.1 11.1101 143.336 12.6501 145.023C14.1901 146.636 16.3901 147.443 19.2501 147.443C20.9368 147.443 22.4401 147.113 23.7601 146.453C25.0801 145.72 26.1068 144.62 26.8401 143.153C27.6468 141.613 28.0501 139.56 28.0501 136.993C28.0501 133.84 27.5368 131.273 26.5101 129.293C25.4834 127.313 24.0168 125.59 22.1101 124.123C20.2768 122.583 18.0768 121.116 15.5101 119.723C13.5301 118.476 11.6234 117.23 9.79009 115.983C7.95675 114.663 6.30675 113.196 4.84009 111.583C3.37342 109.97 2.23675 108.1 1.43009 105.973C0.62342 103.846 0.220087 101.39 0.220087 98.603C0.220087 95.083 0.880087 91.9663 2.20009 89.253C3.59342 86.4663 5.64675 84.303 8.36009 82.763C11.1468 81.223 14.5934 80.453 18.7001 80.453C23.2468 80.453 26.9134 81.443 29.7001 83.423C32.4868 85.3297 34.4301 88.0063 35.5301 91.453C36.7034 94.8997 36.9968 98.933 36.4101 103.553L27.2801 104.543C27.5734 102.343 27.6101 100.29 27.3901 98.383C27.1701 96.4763 26.6934 94.7897 25.9601 93.323C25.3001 91.8563 24.3468 90.7197 23.1001 89.913C21.8534 89.1063 20.3501 88.703 18.5901 88.703C16.7568 88.703 15.1801 89.1063 13.8601 89.913C12.6134 90.6463 11.6234 91.7097 10.8901 93.103C10.2301 94.4963 9.90009 96.1463 9.90009 98.053C9.90009 100.693 10.4868 102.893 11.6601 104.653C12.8334 106.413 14.3001 107.916 16.0601 109.163C17.8934 110.41 19.6901 111.51 21.4501 112.463C23.5034 113.636 25.5201 114.956 27.5001 116.423C29.4801 117.89 31.2401 119.54 32.7801 121.373C34.3934 123.206 35.6401 125.37 36.5201 127.863C37.4734 130.356 37.9501 133.29 37.9501 136.663C37.9501 140.11 37.3268 143.263 36.0801 146.123C34.9068 148.983 32.9268 151.256 30.1401 152.943C27.4268 154.63 23.7234 155.473 19.0301 155.473ZM42.3011 116.973L72.3311 104.653V113.343L42.3011 125.773V116.973ZM48.9011 154.263V81.663H58.8011V154.263H48.9011ZM52.4211 154.263V145.463H78.2711V154.263H52.4211ZM89.1697 154.263V130.393L72.6697 81.663H83.8897L94.2297 121.373H94.7797L104.68 81.663H115.46L99.2897 130.503V154.263H89.1697ZM136.336 155.473C132.45 155.473 129.186 154.63 126.546 152.943C123.98 151.183 121.926 148.69 120.386 145.463C118.92 142.163 117.856 138.24 117.196 133.693C116.61 129.146 116.316 124.086 116.316 118.513C116.316 113.013 116.646 107.953 117.306 103.333C117.966 98.6397 119.066 94.6063 120.606 91.233C122.146 87.7863 124.236 85.1463 126.876 83.313C129.516 81.4063 132.78 80.453 136.666 80.453C140.04 80.453 142.863 81.1497 145.136 82.543C147.41 83.863 149.206 85.733 150.526 88.153C151.846 90.4997 152.726 93.323 153.166 96.623C153.68 99.8497 153.753 103.333 153.386 107.073L144.036 108.173C144.403 104.286 144.33 100.876 143.816 97.943C143.376 95.0097 142.496 92.773 141.176 91.233C139.93 89.6197 138.353 88.813 136.446 88.813C134.613 88.813 133.036 89.5097 131.716 90.903C130.47 92.223 129.443 94.1663 128.636 96.733C127.83 99.2997 127.206 102.38 126.766 105.973C126.4 109.493 126.216 113.453 126.216 117.853C126.216 125.186 126.62 131.016 127.426 135.343C128.233 139.596 129.37 142.64 130.836 144.473C132.376 146.306 134.173 147.223 136.226 147.223C138.573 147.223 140.443 146.233 141.836 144.253C143.23 142.2 144.146 139.376 144.586 135.783C145.1 132.19 145.1 128.046 144.586 123.353L154.046 124.453C154.486 128.853 154.523 132.96 154.156 136.773C153.79 140.513 152.91 143.813 151.516 146.673C150.196 149.46 148.29 151.623 145.796 153.163C143.303 154.703 140.15 155.473 136.336 155.473ZM189.455 154.263V81.663H199.245V154.263H189.455ZM161.625 154.263V81.663H171.415V154.263H161.625ZM167.455 121.373V112.903H193.525V121.373H167.455ZM202.801 154.263L238.439 81.133H260.275L295.913 154.263H273.974L265.94 136.959H231.435L223.504 154.263H202.801ZM238.027 122.951H259.554L248.842 99.879L238.027 122.951ZM318.437 155.473C314.55 155.473 311.287 154.63 308.647 152.943C306.08 151.183 304.027 148.69 302.487 145.463C301.02 142.163 299.957 138.24 299.297 133.693C298.71 129.146 298.417 124.086 298.417 118.513C298.417 113.013 298.747 107.953 299.407 103.333C300.067 98.6397 301.167 94.6063 302.707 91.233C304.247 87.7863 306.337 85.1463 308.977 83.313C311.617 81.4063 314.88 80.453 318.767 80.453C322.14 80.453 324.964 81.1497 327.237 82.543C329.51 83.863 331.307 85.733 332.627 88.153C333.947 90.4997 334.827 93.323 335.267 96.623C335.78 99.8497 335.854 103.333 335.487 107.073L326.137 108.173C326.504 104.286 326.43 100.876 325.917 97.943C325.477 95.0097 324.597 92.773 323.277 91.233C322.03 89.6197 320.454 88.813 318.547 88.813C316.714 88.813 315.137 89.5097 313.817 90.903C312.57 92.223 311.544 94.1663 310.737 96.733C309.93 99.2997 309.307 102.38 308.867 105.973C308.5 109.493 308.317 113.453 308.317 117.853C308.317 125.186 308.72 131.016 309.527 135.343C310.334 139.596 311.47 142.64 312.937 144.473C314.477 146.306 316.274 147.223 318.327 147.223C320.674 147.223 322.544 146.233 323.937 144.253C325.33 142.2 326.247 139.376 326.687 135.783C327.2 132.19 327.2 128.046 326.687 123.353L336.147 124.453C336.587 128.853 336.624 132.96 336.257 136.773C335.89 140.513 335.01 143.813 333.617 146.673C332.297 149.46 330.39 151.623 327.897 153.163C325.404 154.703 322.25 155.473 318.437 155.473ZM320.307 74.953H312.277L317.667 61.093H328.007L320.307 74.953Z" fill="white"/>
</svg>
