<svg width="372" height="173" viewBox="0 0 372 173" fill="none" xmlns="http://www.w3.org/2000/svg">
<g filter="url(#filter0_d_337_38018)">
<path d="M100.332 73.13V0.530002H110.122V35.73C112.102 34.19 114.009 32.32 115.842 30.12C117.675 27.92 119.325 25.3533 120.792 22.42C122.259 19.4867 123.469 16.2233 124.422 12.63C125.449 8.96334 126.072 4.93 126.292 0.530002H136.742C136.449 5.29667 135.715 9.66 134.542 13.62C133.369 17.5067 131.865 20.99 130.032 24.07C128.272 27.15 126.292 29.8267 124.092 32.1C121.892 34.3 119.582 36.1333 117.162 37.6V38.48C119.509 38.5533 121.635 38.7733 123.542 39.14C125.449 39.4333 127.135 40.0933 128.602 41.12C130.142 42.1467 131.389 43.6867 132.342 45.74C133.295 47.72 134.029 50.3967 134.542 53.77L137.402 73.13H127.282L125.522 59.27C125.009 55.1633 124.422 51.9733 123.762 49.7C123.102 47.4267 122.039 45.8133 120.572 44.86C119.105 43.9067 116.905 43.43 113.972 43.43H110.122V73.13H100.332ZM143.546 73.13V0.530002H153.446V73.13H143.546ZM162.194 73.13V9.53674e-07H193.3L217.814 50.779H217.917L242.431 9.53674e-07H273.743V73.13H253.143V18.952H253.04L226.672 73.13H207.823L181.455 18.952H181.352V73.13H162.194ZM4.98952 164.12L3.99952 154.66C4.36619 154.733 4.73285 154.77 5.09952 154.77C5.53952 154.77 5.90619 154.77 6.19952 154.77C8.61952 154.77 10.5262 154.403 11.9195 153.67C13.3129 152.937 14.3029 151.727 14.8895 150.04C15.5495 148.28 15.8795 145.897 15.8795 142.89V90.53H25.8895V143.44C25.8895 148.06 25.2295 151.91 23.9095 154.99C22.6629 158.07 20.7562 160.38 18.1895 161.92C15.6229 163.46 12.4329 164.23 8.61952 164.23C8.17952 164.23 7.70285 164.23 7.18952 164.23C6.67619 164.23 5.94285 164.193 4.98952 164.12ZM34.3208 163.13V90.53H44.1108V163.13H34.3208ZM38.9408 163.13V154.66H63.4708V163.13H38.9408ZM38.9408 130.13V121.99H61.0509V130.13H38.9408ZM38.9408 99V90.53H63.4708V99H38.9408ZM85.1237 164.34C80.8703 164.34 77.387 163.607 74.6737 162.14C72.0337 160.673 70.017 158.693 68.6237 156.2C67.3037 153.707 66.5337 150.957 66.3137 147.95C66.167 144.87 66.4237 141.79 67.0837 138.71L76.1037 137.72C75.5903 141.167 75.517 144.32 75.8837 147.18C76.2503 149.967 77.2037 152.203 78.7437 153.89C80.2837 155.503 82.4837 156.31 85.3437 156.31C87.0303 156.31 88.5337 155.98 89.8537 155.32C91.1737 154.587 92.2003 153.487 92.9337 152.02C93.7403 150.48 94.1437 148.427 94.1437 145.86C94.1437 142.707 93.6303 140.14 92.6037 138.16C91.577 136.18 90.1103 134.457 88.2037 132.99C86.3703 131.45 84.1703 129.983 81.6037 128.59C79.6237 127.343 77.717 126.097 75.8837 124.85C74.0503 123.53 72.4003 122.063 70.9337 120.45C69.467 118.837 68.3303 116.967 67.5237 114.84C66.717 112.713 66.3137 110.257 66.3137 107.47C66.3137 103.95 66.9737 100.833 68.2937 98.12C69.687 95.3333 71.7403 93.17 74.4537 91.63C77.2403 90.09 80.687 89.32 84.7937 89.32C89.3403 89.32 93.007 90.31 95.7937 92.29C98.5803 94.1967 100.524 96.8733 101.624 100.32C102.797 103.767 103.09 107.8 102.504 112.42L93.3737 113.41C93.667 111.21 93.7037 109.157 93.4837 107.25C93.2637 105.343 92.787 103.657 92.0537 102.19C91.3937 100.723 90.4403 99.5867 89.1937 98.78C87.947 97.9733 86.4437 97.57 84.6837 97.57C82.8503 97.57 81.2737 97.9733 79.9537 98.78C78.707 99.5133 77.717 100.577 76.9837 101.97C76.3237 103.363 75.9937 105.013 75.9937 106.92C75.9937 109.56 76.5803 111.76 77.7537 113.52C78.927 115.28 80.3937 116.783 82.1537 118.03C83.987 119.277 85.7837 120.377 87.5437 121.33C89.597 122.503 91.6137 123.823 93.5937 125.29C95.5737 126.757 97.3337 128.407 98.8737 130.24C100.487 132.073 101.734 134.237 102.614 136.73C103.567 139.223 104.044 142.157 104.044 145.53C104.044 148.977 103.42 152.13 102.174 154.99C101 157.85 99.0203 160.123 96.2337 161.81C93.5203 163.497 89.817 164.34 85.1237 164.34ZM118.824 163.13V90.53H128.614V163.13H118.824ZM104.854 99V90.53H142.584V99H104.854ZM146.808 163.13V90H214.788V105.244H167.408V118.84H210.153V133.466H167.408V147.886H215.509V163.13H146.808ZM238.962 164.34C234.709 164.34 231.225 163.607 228.512 162.14C225.872 160.673 223.855 158.693 222.462 156.2C221.142 153.707 220.372 150.957 220.152 147.95C220.005 144.87 220.262 141.79 220.922 138.71L229.942 137.72C229.429 141.167 229.355 144.32 229.722 147.18C230.089 149.967 231.042 152.203 232.582 153.89C234.122 155.503 236.322 156.31 239.182 156.31C240.869 156.31 242.372 155.98 243.692 155.32C245.012 154.587 246.039 153.487 246.772 152.02C247.579 150.48 247.982 148.427 247.982 145.86C247.982 142.707 247.469 140.14 246.442 138.16C245.415 136.18 243.949 134.457 242.042 132.99C240.209 131.45 238.009 129.983 235.442 128.59C233.462 127.343 231.555 126.097 229.722 124.85C227.889 123.53 226.239 122.063 224.772 120.45C223.305 118.837 222.169 116.967 221.362 114.84C220.555 112.713 220.152 110.257 220.152 107.47C220.152 103.95 220.812 100.833 222.132 98.12C223.525 95.3333 225.579 93.17 228.292 91.63C231.079 90.09 234.525 89.32 238.632 89.32C243.179 89.32 246.845 90.31 249.632 92.29C252.419 94.1967 254.362 96.8733 255.462 100.32C256.635 103.767 256.929 107.8 256.342 112.42L247.212 113.41C247.505 111.21 247.542 109.157 247.322 107.25C247.102 105.343 246.625 103.657 245.892 102.19C245.232 100.723 244.279 99.5867 243.032 98.78C241.785 97.9733 240.282 97.57 238.522 97.57C236.689 97.57 235.112 97.9733 233.792 98.78C232.545 99.5133 231.555 100.577 230.822 101.97C230.162 103.363 229.832 105.013 229.832 106.92C229.832 109.56 230.419 111.76 231.592 113.52C232.765 115.28 234.232 116.783 235.992 118.03C237.825 119.277 239.622 120.377 241.382 121.33C243.435 122.503 245.452 123.823 247.432 125.29C249.412 126.757 251.172 128.407 252.712 130.24C254.325 132.073 255.572 134.237 256.452 136.73C257.405 139.223 257.882 142.157 257.882 145.53C257.882 148.977 257.259 152.13 256.012 154.99C254.839 157.85 252.859 160.123 250.072 161.81C247.359 163.497 243.655 164.34 238.962 164.34ZM241.602 83.93H233.572L238.962 70.07H249.302L241.602 83.93ZM263.844 163.13V90.53H279.574L292.224 154H292.884L305.314 90.53H320.824V163.13H311.584L312.024 99.66H311.364L298.164 163.13H286.504L273.524 99.66H272.864L273.304 163.13H263.844ZM341.062 163.13V139.26L324.562 90.53H335.782L346.122 130.24H346.672L356.572 90.53H367.352L351.182 139.37V163.13H341.062Z" fill="white"/>
</g>
<defs>
<filter id="filter0_d_337_38018" x="0" y="0" width="371.352" height="172.34" filterUnits="userSpaceOnUse" color-interpolation-filters="sRGB">
<feFlood flood-opacity="0" result="BackgroundImageFix"/>
<feColorMatrix in="SourceAlpha" type="matrix" values="0 0 0 0 0 0 0 0 0 0 0 0 0 0 0 0 0 0 127 0" result="hardAlpha"/>
<feOffset dy="4"/>
<feGaussianBlur stdDeviation="2"/>
<feComposite in2="hardAlpha" operator="out"/>
<feColorMatrix type="matrix" values="0 0 0 0 0 0 0 0 0 0 0 0 0 0 0 0 0 0 0.25 0"/>
<feBlend mode="normal" in2="BackgroundImageFix" result="effect1_dropShadow_337_38018"/>
<feBlend mode="normal" in="SourceGraphic" in2="effect1_dropShadow_337_38018" result="shape"/>
</filter>
</defs>
</svg>
