<svg width="669" height="112" viewBox="0 0 669 112" fill="none" xmlns="http://www.w3.org/2000/svg">
<path d="M-0.000110902 109.98V24.18H11.5699V65.78C13.9099 63.96 16.1632 61.75 18.3299 59.15C20.4966 56.55 22.4466 53.5166 24.1799 50.05C25.9132 46.5833 27.3432 42.7266 28.4699 38.48C29.6832 34.1466 30.4199 29.38 30.6799 24.18H43.0299C42.6832 29.8133 41.8166 34.97 40.4299 39.65C39.0432 44.2433 37.2666 48.36 35.0999 52C33.0199 55.64 30.6799 58.8033 28.0799 61.49C25.4799 64.09 22.7499 66.2566 19.8899 67.99V69.03C22.6632 69.1166 25.1766 69.3766 27.4299 69.81C29.6832 70.1566 31.6766 70.9366 33.4099 72.15C35.2299 73.3633 36.7032 75.1833 37.8299 77.61C38.9566 79.95 39.8232 83.1133 40.4299 87.1L43.8099 109.98H31.8499L29.7699 93.6C29.1632 88.7466 28.4699 84.9766 27.6899 82.29C26.9099 79.6033 25.6532 77.6966 23.9199 76.57C22.1866 75.4433 19.5866 74.88 16.1199 74.88H11.5699V109.98H-0.000110902ZM52.3706 109.98V24.18H64.0706V109.98H52.3706ZM75.609 109.98V24.78H111.849L140.409 83.94H140.529L169.089 24.78H205.569V109.98H181.569V46.86H181.449L150.729 109.98H128.769L98.049 46.86H97.929V109.98H75.609ZM232.886 111.15L231.716 99.97C232.149 100.057 232.583 100.1 233.016 100.1C233.536 100.1 233.969 100.1 234.316 100.1C237.176 100.1 239.429 99.6666 241.076 98.8C242.723 97.9333 243.893 96.5033 244.586 94.51C245.366 92.43 245.756 89.6133 245.756 86.06V24.18H257.586V86.71C257.586 92.17 256.806 96.72 255.246 100.36C253.773 104 251.519 106.73 248.486 108.55C245.453 110.37 241.683 111.28 237.176 111.28C236.656 111.28 236.093 111.28 235.486 111.28C234.879 111.28 234.013 111.237 232.886 111.15ZM268.85 109.98V24.18H280.42V109.98H268.85ZM274.31 109.98V99.97H303.3V109.98H274.31ZM274.31 70.98V61.36H300.44V70.98H274.31ZM274.31 34.19V24.18H303.3V34.19H274.31ZM330.19 111.41C325.163 111.41 321.047 110.543 317.84 108.81C314.72 107.077 312.337 104.737 310.69 101.79C309.13 98.8433 308.22 95.5933 307.96 92.04C307.787 88.4 308.09 84.76 308.87 81.12L319.53 79.95C318.923 84.0233 318.837 87.75 319.27 91.13C319.703 94.4233 320.83 97.0666 322.65 99.06C324.47 100.967 327.07 101.92 330.45 101.92C332.443 101.92 334.22 101.53 335.78 100.75C337.34 99.8833 338.553 98.5833 339.42 96.85C340.373 95.03 340.85 92.6033 340.85 89.57C340.85 85.8433 340.243 82.81 339.03 80.47C337.817 78.13 336.083 76.0933 333.83 74.36C331.663 72.54 329.063 70.8066 326.03 69.16C323.69 67.6866 321.437 66.2133 319.27 64.74C317.103 63.18 315.153 61.4466 313.42 59.54C311.687 57.6333 310.343 55.4233 309.39 52.91C308.437 50.3966 307.96 47.4933 307.96 44.2C307.96 40.04 308.74 36.3566 310.3 33.15C311.947 29.8566 314.373 27.3 317.58 25.48C320.873 23.66 324.947 22.75 329.8 22.75C335.173 22.75 339.507 23.92 342.8 26.26C346.093 28.5133 348.39 31.6766 349.69 35.75C351.077 39.8233 351.423 44.59 350.73 50.05L339.94 51.22C340.287 48.62 340.33 46.1933 340.07 43.94C339.81 41.6866 339.247 39.6933 338.38 37.96C337.6 36.2266 336.473 34.8833 335 33.93C333.527 32.9766 331.75 32.5 329.67 32.5C327.503 32.5 325.64 32.9766 324.08 33.93C322.607 34.7966 321.437 36.0533 320.57 37.7C319.79 39.3466 319.4 41.2966 319.4 43.55C319.4 46.67 320.093 49.27 321.48 51.35C322.867 53.43 324.6 55.2066 326.68 56.68C328.847 58.1533 330.97 59.4533 333.05 60.58C335.477 61.9666 337.86 63.5266 340.2 65.26C342.54 66.9933 344.62 68.9433 346.44 71.11C348.347 73.2766 349.82 75.8333 350.86 78.78C351.987 81.7266 352.55 85.1933 352.55 89.18C352.55 93.2533 351.813 96.98 350.34 100.36C348.953 103.74 346.613 106.427 343.32 108.42C340.113 110.413 335.737 111.41 330.19 111.41ZM371.318 109.98V24.18H382.888V109.98H371.318ZM354.808 34.19V24.18H399.398V34.19H354.808ZM405.59 109.98V24.78H484.79V42.54H429.59V58.38H479.39V75.42H429.59V92.22H485.63V109.98H405.59ZM514.533 111.41C509.507 111.41 505.39 110.543 502.183 108.81C499.063 107.077 496.68 104.737 495.033 101.79C493.473 98.8433 492.563 95.5933 492.303 92.04C492.13 88.4 492.433 84.76 493.213 81.12L503.873 79.95C503.267 84.0233 503.18 87.75 503.613 91.13C504.047 94.4233 505.173 97.0666 506.993 99.06C508.813 100.967 511.413 101.92 514.793 101.92C516.787 101.92 518.563 101.53 520.123 100.75C521.683 99.8833 522.897 98.5833 523.763 96.85C524.717 95.03 525.193 92.6033 525.193 89.57C525.193 85.8433 524.587 82.81 523.373 80.47C522.16 78.13 520.427 76.0933 518.173 74.36C516.007 72.54 513.407 70.8066 510.373 69.16C508.033 67.6866 505.78 66.2133 503.613 64.74C501.447 63.18 499.497 61.4466 497.763 59.54C496.03 57.6333 494.687 55.4233 493.733 52.91C492.78 50.3966 492.303 47.4933 492.303 44.2C492.303 40.04 493.083 36.3566 494.643 33.15C496.29 29.8566 498.717 27.3 501.923 25.48C505.217 23.66 509.29 22.75 514.143 22.75C519.517 22.75 523.85 23.92 527.143 26.26C530.437 28.5133 532.733 31.6766 534.033 35.75C535.42 39.8233 535.767 44.59 535.073 50.05L524.283 51.22C524.63 48.62 524.673 46.1933 524.413 43.94C524.153 41.6866 523.59 39.6933 522.723 37.96C521.943 36.2266 520.817 34.8833 519.343 33.93C517.87 32.9766 516.093 32.5 514.013 32.5C511.847 32.5 509.983 32.9766 508.423 33.93C506.95 34.7966 505.78 36.0533 504.913 37.7C504.133 39.3466 503.743 41.2966 503.743 43.55C503.743 46.67 504.437 49.27 505.823 51.35C507.21 53.43 508.943 55.2066 511.023 56.68C513.19 58.1533 515.313 59.4533 517.393 60.58C519.82 61.9666 522.203 63.5266 524.543 65.26C526.883 66.9933 528.963 68.9433 530.783 71.11C532.69 73.2766 534.163 75.8333 535.203 78.78C536.33 81.7266 536.893 85.1933 536.893 89.18C536.893 93.2533 536.157 96.98 534.683 100.36C533.297 103.74 530.957 106.427 527.663 108.42C524.457 110.413 520.08 111.41 514.533 111.41ZM517.653 16.38H508.163L514.533 -2.15769e-05H526.753L517.653 16.38ZM545.24 109.98V24.18H563.83L578.78 99.19H579.56L594.25 24.18H612.58V109.98H601.66L602.18 34.97H601.4L585.8 109.98H572.02L556.68 34.97H555.9L556.42 109.98H545.24ZM637.797 109.98V81.77L618.297 24.18H631.557L643.777 71.11H644.427L656.127 24.18H668.867L649.757 81.9V109.98H637.797Z" fill="white"/>
</svg>
