<svg width="732" height="97" viewBox="0 0 732 97" fill="none" xmlns="http://www.w3.org/2000/svg">
<g filter="url(#filter0_d_337_38020)">
<path d="M3.99986 87.36V2.15998H28.5999L69.3999 49.92H69.5199V2.15998H91.8399V87.36H73.4799L26.4399 32.4H26.3199V87.36H3.99986ZM98.3086 87.36L114.039 1.55998H132.109L147.709 87.36H135.619L123.659 11.31H122.359L110.269 87.36H98.3086ZM109.359 68.9V60.06H136.919V68.9H109.359ZM173.732 88.79C168.705 88.79 164.589 87.9233 161.382 86.19C158.262 84.4567 155.879 82.1167 154.232 79.17C152.672 76.2233 151.762 72.9733 151.502 69.42C151.329 65.78 151.632 62.14 152.412 58.5L163.072 57.33C162.465 61.4033 162.379 65.13 162.812 68.51C163.245 71.8033 164.372 74.4467 166.192 76.44C168.012 78.3467 170.612 79.3 173.992 79.3C175.985 79.3 177.762 78.91 179.322 78.13C180.882 77.2633 182.095 75.9633 182.962 74.23C183.915 72.41 184.392 69.9833 184.392 66.95C184.392 63.2233 183.785 60.19 182.572 57.85C181.359 55.51 179.625 53.4733 177.372 51.74C175.205 49.92 172.605 48.1867 169.572 46.54C167.232 45.0666 164.979 43.5933 162.812 42.12C160.645 40.56 158.695 38.8266 156.962 36.92C155.229 35.0133 153.885 32.8033 152.932 30.29C151.979 27.7766 151.502 24.8733 151.502 21.58C151.502 17.42 152.282 13.7366 153.842 10.53C155.489 7.23665 157.915 4.67998 161.122 2.85998C164.415 1.03998 168.489 0.129985 173.342 0.129985C178.715 0.129985 183.049 1.29998 186.342 3.63998C189.635 5.89331 191.932 9.05665 193.232 13.13C194.619 17.2033 194.965 21.97 194.272 27.43L183.482 28.6C183.829 26 183.872 23.5733 183.612 21.32C183.352 19.0666 182.789 17.0733 181.922 15.34C181.142 13.6067 180.015 12.2633 178.542 11.31C177.069 10.3566 175.292 9.87998 173.212 9.87998C171.045 9.87998 169.182 10.3566 167.622 11.31C166.149 12.1766 164.979 13.4333 164.112 15.08C163.332 16.7266 162.942 18.6767 162.942 20.93C162.942 24.05 163.635 26.65 165.022 28.73C166.409 30.81 168.142 32.5866 170.222 34.06C172.389 35.5333 174.512 36.8333 176.592 37.96C179.019 39.3466 181.402 40.9066 183.742 42.64C186.082 44.3733 188.162 46.3233 189.982 48.49C191.889 50.6566 193.362 53.2133 194.402 56.16C195.529 59.1067 196.092 62.5733 196.092 66.56C196.092 70.6333 195.355 74.36 193.882 77.74C192.495 81.12 190.155 83.8067 186.862 85.8C183.655 87.7933 179.279 88.79 173.732 88.79ZM201.034 87.36V77.61L228.074 12.74V11.57H201.814V1.55998H240.424V11.44L213.384 76.18V77.35H242.114V87.36H201.034ZM249.192 87.36V1.55998H260.762V87.36H249.192ZM254.652 87.36V77.35H283.642V87.36H254.652ZM254.652 48.36V38.74H280.782V48.36H254.652ZM254.652 11.57V1.55998H283.642V11.57H254.652ZM317.393 62.66V52.78H326.753C332.386 52.78 336.59 51.0467 339.363 47.58C342.136 44.0267 343.523 38.6533 343.523 31.46C343.523 24.7 342.266 19.6733 339.753 16.38C337.24 13.0866 333.426 11.44 328.313 11.44H317.393V1.55998H330.003C333.21 1.55998 336.286 2.12332 339.233 3.24998C342.266 4.28998 344.996 6.02331 347.423 8.44998C349.936 10.79 351.886 13.91 353.273 17.81C354.746 21.6233 355.483 26.26 355.483 31.72C355.483 38.5666 354.27 44.2867 351.843 48.88C349.416 53.4733 345.95 56.94 341.443 59.28C336.936 61.5333 331.606 62.66 325.453 62.66H317.393ZM311.023 87.36V1.55998H322.593V87.36H311.023ZM362.826 87.36V2.15998H415.386C426.746 2.15998 435.266 4.59998 440.946 9.47998C446.706 14.28 449.586 21.28 449.586 30.48C449.586 37.12 447.986 42.64 444.786 47.04C441.666 51.44 437.106 54.72 431.106 56.88L450.426 87.36H423.066L406.506 60H386.826V87.36H362.826ZM413.226 19.92H386.826V42.84H413.226C421.466 42.84 425.586 39.2 425.586 31.92V30.72C425.586 23.52 421.466 19.92 413.226 19.92ZM479.683 88.92C475.003 88.92 471.147 87.7933 468.113 85.54C465.167 83.2867 462.827 80.1667 461.093 76.18C459.447 72.1933 458.277 67.5567 457.583 62.27C456.977 56.8966 456.673 51.1333 456.673 44.98C456.673 35.2733 457.323 27.0833 458.623 20.41C460.01 13.7366 462.393 8.66665 465.773 5.19998C469.153 1.73331 473.747 -2.12193e-05 479.553 -2.12193e-05C484.147 -2.12193e-05 487.917 1.03998 490.863 3.11999C493.897 5.11332 496.28 8.05998 498.013 11.96C499.833 15.86 501.133 20.5833 501.913 26.13C502.693 31.6767 503.083 38.0467 503.083 45.24C503.083 51.48 502.693 57.2867 501.913 62.66C501.22 67.9467 499.963 72.5833 498.143 76.57C496.41 80.47 494.027 83.5033 490.993 85.67C487.96 87.8367 484.19 88.92 479.683 88.92ZM479.683 79.04C482.11 79.04 484.19 77.9133 485.923 75.66C487.657 73.4067 488.957 69.7233 489.823 64.61C490.777 59.41 491.253 52.4767 491.253 43.81C491.253 35.8367 490.777 29.38 489.823 24.44C488.957 19.4133 487.657 15.73 485.923 13.39C484.19 11.05 482.023 9.87998 479.423 9.87998C477.17 9.87998 475.22 10.9633 473.573 13.13C471.927 15.21 470.67 18.6766 469.803 23.53C468.937 28.3833 468.503 35.0133 468.503 43.42C468.503 50.0933 468.763 55.7267 469.283 60.32C469.803 64.8267 470.54 68.4667 471.493 71.24C472.447 74.0133 473.617 76.0067 475.003 77.22C476.39 78.4333 477.95 79.04 479.683 79.04ZM506.314 88.53L505.144 77.35C505.577 77.4367 506.011 77.48 506.444 77.48C506.964 77.48 507.397 77.48 507.744 77.48C510.604 77.48 512.857 77.0467 514.504 76.18C516.151 75.3133 517.321 73.8833 518.014 71.89C518.794 69.81 519.184 66.9933 519.184 63.44V1.55998H531.014V64.09C531.014 69.55 530.234 74.1 528.674 77.74C527.201 81.38 524.947 84.11 521.914 85.93C518.881 87.75 515.111 88.66 510.604 88.66C510.084 88.66 509.521 88.66 508.914 88.66C508.307 88.66 507.441 88.6167 506.314 88.53ZM542.278 87.36V1.55998H553.848V87.36H542.278ZM547.738 87.36V77.35H576.728V87.36H547.738ZM547.738 48.36V38.74H573.868V48.36H547.738ZM547.738 11.57V1.55998H576.728V11.57H547.738ZM584.239 87.36V1.55998H595.809V43.16C598.149 41.34 600.402 39.13 602.569 36.53C604.735 33.93 606.685 30.8966 608.419 27.43C610.152 23.9633 611.582 20.1066 612.709 15.86C613.922 11.5266 614.659 6.75998 614.919 1.55998H627.269C626.922 7.19332 626.055 12.35 624.669 17.03C623.282 21.6233 621.505 25.74 619.339 29.38C617.259 33.02 614.919 36.1833 612.319 38.87C609.719 41.47 606.989 43.6366 604.129 45.37V46.41C606.902 46.4966 609.415 46.7567 611.669 47.19C613.922 47.5367 615.915 48.3167 617.649 49.53C619.469 50.7433 620.942 52.5633 622.069 54.99C623.195 57.33 624.062 60.4933 624.669 64.48L628.049 87.36H616.089L614.009 70.98C613.402 66.1267 612.709 62.3567 611.929 59.67C611.149 56.9833 609.892 55.0767 608.159 53.95C606.425 52.8233 603.825 52.26 600.359 52.26H595.809V87.36H584.239ZM647.919 87.36V1.55998H659.489V87.36H647.919ZM631.409 11.57V1.55998H675.999V11.57H631.409ZM696.92 87.36V59.15L677.42 1.55998H690.68L702.9 48.49H703.55L715.25 1.55998H727.99L708.88 59.28V87.36H696.92Z" fill="white"/>
</g>
<defs>
<filter id="filter0_d_337_38020" x="0" y="0" width="731.99" height="96.92" filterUnits="userSpaceOnUse" color-interpolation-filters="sRGB">
<feFlood flood-opacity="0" result="BackgroundImageFix"/>
<feColorMatrix in="SourceAlpha" type="matrix" values="0 0 0 0 0 0 0 0 0 0 0 0 0 0 0 0 0 0 127 0" result="hardAlpha"/>
<feOffset dy="4"/>
<feGaussianBlur stdDeviation="2"/>
<feComposite in2="hardAlpha" operator="out"/>
<feColorMatrix type="matrix" values="0 0 0 0 0 0 0 0 0 0 0 0 0 0 0 0 0 0 0.25 0"/>
<feBlend mode="normal" in2="BackgroundImageFix" result="effect1_dropShadow_337_38020"/>
<feBlend mode="normal" in="SourceGraphic" in2="effect1_dropShadow_337_38020" result="shape"/>
</filter>
</defs>
</svg>
