<svg width="417" height="189" viewBox="0 0 417 189" fill="none" xmlns="http://www.w3.org/2000/svg">
<path d="M67.7495 87.23V2.02998H92.3495L133.149 49.79H133.269V2.02998H155.589V87.23H137.229L90.1895 32.27H90.0695V87.23H67.7495ZM162.058 87.23L177.788 1.42998H195.858L211.458 87.23H199.368L187.408 11.18H186.108L174.018 87.23H162.058ZM173.108 68.77V59.93H200.668V68.77H173.108ZM237.482 88.66C232.455 88.66 228.338 87.7933 225.132 86.06C222.012 84.3266 219.628 81.9866 217.982 79.04C216.422 76.0933 215.512 72.8433 215.252 69.29C215.078 65.65 215.382 62.01 216.162 58.37L226.822 57.2C226.215 61.2733 226.128 65 226.562 68.38C226.995 71.6733 228.122 74.3166 229.942 76.31C231.762 78.2166 234.362 79.17 237.742 79.17C239.735 79.17 241.512 78.78 243.072 78C244.632 77.1333 245.845 75.8333 246.712 74.1C247.665 72.28 248.142 69.8533 248.142 66.82C248.142 63.0933 247.535 60.06 246.322 57.72C245.108 55.38 243.375 53.3433 241.122 51.61C238.955 49.79 236.355 48.0566 233.322 46.41C230.982 44.9366 228.728 43.4633 226.562 41.99C224.395 40.43 222.445 38.6966 220.712 36.79C218.978 34.8833 217.635 32.6733 216.682 30.16C215.728 27.6466 215.252 24.7433 215.252 21.45C215.252 17.29 216.032 13.6066 217.592 10.4C219.238 7.10665 221.665 4.54998 224.872 2.72998C228.165 0.909979 232.238 -2.00272e-05 237.092 -2.00272e-05C242.465 -2.00272e-05 246.798 1.16998 250.092 3.50997C253.385 5.76331 255.682 8.92664 256.982 13C258.368 17.0733 258.715 21.84 258.022 27.3L247.232 28.47C247.578 25.87 247.622 23.4433 247.362 21.19C247.102 18.9366 246.538 16.9433 245.672 15.21C244.892 13.4766 243.765 12.1333 242.292 11.18C240.818 10.2266 239.042 9.74998 236.962 9.74998C234.795 9.74998 232.932 10.2266 231.372 11.18C229.898 12.0466 228.728 13.3033 227.862 14.95C227.082 16.5966 226.692 18.5466 226.692 20.8C226.692 23.92 227.385 26.52 228.772 28.6C230.158 30.68 231.892 32.4566 233.972 33.93C236.138 35.4033 238.262 36.7033 240.342 37.83C242.768 39.2166 245.152 40.7766 247.492 42.51C249.832 44.2433 251.912 46.1933 253.732 48.36C255.638 50.5266 257.112 53.0833 258.152 56.03C259.278 58.9766 259.842 62.4433 259.842 66.43C259.842 70.5033 259.105 74.23 257.632 77.61C256.245 80.99 253.905 83.6766 250.612 85.67C247.405 87.6633 243.028 88.66 237.482 88.66ZM264.784 87.23V77.48L291.824 12.61V11.44H265.564V1.42998H304.174V11.31L277.134 76.05V77.22H305.864V87.23H264.784ZM312.942 87.23V1.42998H324.512V87.23H312.942ZM318.402 87.23V77.22H347.392V87.23H318.402ZM318.402 48.23V38.61H344.532V48.23H318.402ZM318.402 11.44V1.42998H347.392V11.44H318.402ZM6.37047 162.53V152.65H15.7305C21.3638 152.65 25.5671 150.917 28.3405 147.45C31.1138 143.897 32.5005 138.523 32.5005 131.33C32.5005 124.57 31.2438 119.543 28.7305 116.25C26.2171 112.957 22.4038 111.31 17.2905 111.31H6.37047V101.43H18.9805C22.1871 101.43 25.2638 101.993 28.2105 103.12C31.2438 104.16 33.9738 105.893 36.4005 108.32C38.9138 110.66 40.8638 113.78 42.2505 117.68C43.7238 121.493 44.4605 126.13 44.4605 131.59C44.4605 138.437 43.2471 144.157 40.8205 148.75C38.3938 153.343 34.9271 156.81 30.4205 159.15C25.9138 161.403 20.5838 162.53 14.4305 162.53H6.37047ZM0.000468932 187.23V101.43H11.5705V187.23H0.000468932ZM51.8034 187.23V102.03H104.363C115.723 102.03 124.243 104.47 129.923 109.35C135.683 114.15 138.563 121.15 138.563 130.35C138.563 136.99 136.963 142.51 133.763 146.91C130.643 151.31 126.083 154.59 120.083 156.75L139.403 187.23H112.043L95.4834 159.87H75.8034V187.23H51.8034ZM102.203 119.79H75.8034V142.71H102.203C110.443 142.71 114.563 139.07 114.563 131.79V130.59C114.563 123.39 110.443 119.79 102.203 119.79ZM168.661 188.79C163.981 188.79 160.124 187.663 157.091 185.41C154.144 183.157 151.804 180.037 150.071 176.05C148.424 172.063 147.254 167.427 146.561 162.14C145.954 156.767 145.651 151.003 145.651 144.85C145.651 135.143 146.301 126.953 147.601 120.28C148.987 113.607 151.371 108.537 154.751 105.07C158.131 101.603 162.724 99.87 168.531 99.87C173.124 99.87 176.894 100.91 179.841 102.99C182.874 104.983 185.257 107.93 186.991 111.83C188.811 115.73 190.111 120.453 190.891 126C191.671 131.547 192.061 137.917 192.061 145.11C192.061 151.35 191.671 157.157 190.891 162.53C190.197 167.817 188.941 172.453 187.121 176.44C185.387 180.34 183.004 183.373 179.971 185.54C176.937 187.707 173.167 188.79 168.661 188.79ZM168.661 178.91C171.087 178.91 173.167 177.783 174.901 175.53C176.634 173.277 177.934 169.593 178.801 164.48C179.754 159.28 180.231 152.347 180.231 143.68C180.231 135.707 179.754 129.25 178.801 124.31C177.934 119.283 176.634 115.6 174.901 113.26C173.167 110.92 171.001 109.75 168.401 109.75C166.147 109.75 164.197 110.833 162.551 113C160.904 115.08 159.647 118.547 158.781 123.4C157.914 128.253 157.481 134.883 157.481 143.29C157.481 149.963 157.741 155.597 158.261 160.19C158.781 164.697 159.517 168.337 160.471 171.11C161.424 173.883 162.594 175.877 163.981 177.09C165.367 178.303 166.927 178.91 168.661 178.91ZM195.291 188.4L194.121 177.22C194.555 177.307 194.988 177.35 195.421 177.35C195.941 177.35 196.375 177.35 196.721 177.35C199.581 177.35 201.835 176.917 203.481 176.05C205.128 175.183 206.298 173.753 206.991 171.76C207.771 169.68 208.161 166.863 208.161 163.31V101.43H219.991V163.96C219.991 169.42 219.211 173.97 217.651 177.61C216.178 181.25 213.925 183.98 210.891 185.8C207.858 187.62 204.088 188.53 199.581 188.53C199.061 188.53 198.498 188.53 197.891 188.53C197.285 188.53 196.418 188.487 195.291 188.4ZM231.256 187.23V101.43H242.826V187.23H231.256ZM236.716 187.23V177.22H265.706V187.23H236.716ZM236.716 148.23V138.61H262.846V148.23H236.716ZM236.716 111.44V101.43H265.706V111.44H236.716ZM273.216 187.23V101.43H284.786V143.03C287.126 141.21 289.379 139 291.546 136.4C293.713 133.8 295.663 130.767 297.396 127.3C299.129 123.833 300.559 119.977 301.686 115.73C302.899 111.397 303.636 106.63 303.896 101.43H316.246C315.899 107.063 315.033 112.22 313.646 116.9C312.259 121.493 310.483 125.61 308.316 129.25C306.236 132.89 303.896 136.053 301.296 138.74C298.696 141.34 295.966 143.507 293.106 145.24V146.28C295.879 146.367 298.393 146.627 300.646 147.06C302.899 147.407 304.893 148.187 306.626 149.4C308.446 150.613 309.919 152.433 311.046 154.86C312.173 157.2 313.039 160.363 313.646 164.35L317.026 187.23H305.066L302.986 170.85C302.379 165.997 301.686 162.227 300.906 159.54C300.126 156.853 298.869 154.947 297.136 153.82C295.403 152.693 292.803 152.13 289.336 152.13H284.786V187.23H273.216ZM336.897 187.23V101.43H348.467V187.23H336.897ZM320.387 111.44V101.43H364.977V111.44H320.387ZM385.898 187.23V159.02L366.398 101.43H379.658L391.878 148.36H392.528L404.228 101.43H416.968L397.858 159.15V187.23H385.898Z" fill="white"/>
</svg>
