<svg width="326" height="161" viewBox="0 0 326 161" fill="none" xmlns="http://www.w3.org/2000/svg">
<path d="M25.2719 73.84L-0.00014123 2.28882e-05H22.5679L38.4799 54.392L57.1999 2.28882e-05H78.5199L97.2399 54.392L113.152 2.28882e-05H134.68L109.408 73.84H84.2399L67.1839 23.712L50.1279 73.84H25.2719ZM138.631 73.84V1.24002H148.421V73.84H138.631ZM143.251 73.84V65.37H167.781V73.84H143.251ZM143.251 40.84V32.7H165.361V40.84H143.251ZM143.251 9.71003V1.24002H167.781V9.71003H143.251ZM203.473 73.84L216.783 1.24002H232.073L245.273 73.84H235.043L224.923 9.49002H223.823L213.593 73.84H203.473ZM212.823 58.22V50.74H236.143V58.22H212.823ZM250.788 73.84V1.24002H266.408C268.681 1.24002 270.881 1.49669 273.008 2.01002C275.135 2.52336 277.078 3.33002 278.838 4.43002C280.671 5.45669 282.248 6.81336 283.568 8.50002C284.961 10.1134 286.025 12.0567 286.758 14.33C287.491 16.6034 287.858 19.28 287.858 22.36C287.858 24.6334 287.601 26.8334 287.088 28.96C286.575 31.0134 285.731 32.92 284.558 34.68C283.385 36.3667 281.845 37.7967 279.938 38.97C278.031 40.1434 275.648 40.9867 272.788 41.5V42.49C275.575 42.71 277.811 43.3334 279.498 44.36C281.185 45.3867 282.505 46.9267 283.458 48.98C284.485 51.0334 285.291 53.71 285.878 57.01L289.178 73.84H278.948L276.198 58C275.905 55.8 275.465 53.82 274.878 52.06C274.291 50.3 273.301 48.9067 271.908 47.88C270.588 46.8534 268.608 46.34 265.968 46.34H260.578V73.84H250.788ZM260.578 38.75H264.428C268.975 38.75 272.348 37.54 274.548 35.12C276.821 32.6267 277.958 28.8134 277.958 23.68C277.958 18.9134 276.968 15.3934 274.988 13.12C273.081 10.7734 270.001 9.60002 265.748 9.60002H260.578V38.75ZM296.283 73.84V1.24002H306.073V73.84H296.283ZM300.903 73.84V65.37H325.433V73.84H300.903ZM300.903 40.84V32.7H323.013V40.84H300.903ZM300.903 9.71003V1.24002H325.433V9.71003H300.903ZM2.38136 158.84V86.24H12.1714V158.84H2.38136ZM7.00136 158.84V150.37H31.5314V158.84H7.00136ZM7.00136 125.84V117.7H29.1114V125.84H7.00136ZM7.00136 94.71V86.24H31.5314V94.71H7.00136ZM37.8864 158.84V86.24H51.3064L70.7764 145.86H71.4364L70.9964 86.24H80.4564V158.84H67.0364L47.5664 98.67H46.9064L47.3464 158.84H37.8864ZM95.7593 158.84V150.48H105.329C108.189 150.48 110.536 149.563 112.369 147.73C114.203 145.823 115.559 142.817 116.439 138.71C117.393 134.53 117.869 129.067 117.869 122.32C117.869 117.333 117.576 113.08 116.989 109.56C116.476 105.967 115.633 103.07 114.459 100.87C113.359 98.67 111.929 97.0934 110.169 96.14C108.483 95.1134 106.466 94.6 104.119 94.6H95.7593V86.24H104.009C109.289 86.24 113.689 87.67 117.209 90.53C120.729 93.3167 123.369 97.4234 125.129 102.85C126.889 108.277 127.769 114.84 127.769 122.54C127.769 128.407 127.293 133.467 126.339 137.72C125.459 141.9 124.249 145.383 122.709 148.17C121.169 150.883 119.446 153.047 117.539 154.66C115.706 156.2 113.763 157.3 111.709 157.96C109.729 158.547 107.786 158.84 105.879 158.84H95.7593ZM90.1493 158.84V86.24H99.9393V158.84H90.1493ZM135.537 158.84V86.24H145.327V158.84H135.537ZM139.057 158.84V150.04H164.907V158.84H139.057ZM169.63 158.84V85H238.27V100.392H190.43V114.12H233.59V128.888H190.43V143.448H238.998V158.84H169.63ZM263.499 160.05C259.245 160.05 255.762 159.317 253.049 157.85C250.409 156.383 248.392 154.403 246.999 151.91C245.679 149.417 244.909 146.667 244.689 143.66C244.542 140.58 244.799 137.5 245.459 134.42L254.479 133.43C253.965 136.877 253.892 140.03 254.259 142.89C254.625 145.677 255.579 147.913 257.119 149.6C258.659 151.213 260.859 152.02 263.719 152.02C265.405 152.02 266.909 151.69 268.229 151.03C269.549 150.297 270.575 149.197 271.309 147.73C272.115 146.19 272.519 144.137 272.519 141.57C272.519 138.417 272.005 135.85 270.979 133.87C269.952 131.89 268.485 130.167 266.579 128.7C264.745 127.16 262.545 125.693 259.979 124.3C257.999 123.053 256.092 121.807 254.259 120.56C252.425 119.24 250.775 117.773 249.309 116.16C247.842 114.547 246.705 112.677 245.899 110.55C245.092 108.423 244.689 105.967 244.689 103.18C244.689 99.66 245.349 96.5434 246.669 93.83C248.062 91.0434 250.115 88.88 252.829 87.34C255.615 85.8 259.062 85.03 263.169 85.03C267.715 85.03 271.382 86.02 274.169 88C276.955 89.9067 278.899 92.5834 279.999 96.03C281.172 99.4767 281.465 103.51 280.879 108.13L271.749 109.12C272.042 106.92 272.079 104.867 271.859 102.96C271.639 101.053 271.162 99.3667 270.429 97.9C269.769 96.4334 268.815 95.2967 267.569 94.49C266.322 93.6834 264.819 93.28 263.059 93.28C261.225 93.28 259.649 93.6834 258.329 94.49C257.082 95.2234 256.092 96.2867 255.359 97.68C254.699 99.0734 254.369 100.723 254.369 102.63C254.369 105.27 254.955 107.47 256.129 109.23C257.302 110.99 258.769 112.493 260.529 113.74C262.362 114.987 264.159 116.087 265.919 117.04C267.972 118.213 269.989 119.533 271.969 121C273.949 122.467 275.709 124.117 277.249 125.95C278.862 127.783 280.109 129.947 280.989 132.44C281.942 134.933 282.419 137.867 282.419 141.24C282.419 144.687 281.795 147.84 280.549 150.7C279.375 153.56 277.395 155.833 274.609 157.52C271.895 159.207 268.192 160.05 263.499 160.05ZM307.06 160.05C302.807 160.05 299.324 159.317 296.61 157.85C293.97 156.383 291.954 154.403 290.56 151.91C289.24 149.417 288.47 146.667 288.25 143.66C288.104 140.58 288.36 137.5 289.02 134.42L298.04 133.43C297.527 136.877 297.454 140.03 297.82 142.89C298.187 145.677 299.14 147.913 300.68 149.6C302.22 151.213 304.42 152.02 307.28 152.02C308.967 152.02 310.47 151.69 311.79 151.03C313.11 150.297 314.137 149.197 314.87 147.73C315.677 146.19 316.08 144.137 316.08 141.57C316.08 138.417 315.567 135.85 314.54 133.87C313.514 131.89 312.047 130.167 310.14 128.7C308.307 127.16 306.107 125.693 303.54 124.3C301.56 123.053 299.654 121.807 297.82 120.56C295.987 119.24 294.337 117.773 292.87 116.16C291.404 114.547 290.267 112.677 289.46 110.55C288.654 108.423 288.25 105.967 288.25 103.18C288.25 99.66 288.91 96.5434 290.23 93.83C291.624 91.0434 293.677 88.88 296.39 87.34C299.177 85.8 302.624 85.03 306.73 85.03C311.277 85.03 314.944 86.02 317.73 88C320.517 89.9067 322.46 92.5834 323.56 96.03C324.734 99.4767 325.027 103.51 324.44 108.13L315.31 109.12C315.604 106.92 315.64 104.867 315.42 102.96C315.2 101.053 314.724 99.3667 313.99 97.9C313.33 96.4334 312.377 95.2967 311.13 94.49C309.884 93.6834 308.38 93.28 306.62 93.28C304.787 93.28 303.21 93.6834 301.89 94.49C300.644 95.2234 299.654 96.2867 298.92 97.68C298.26 99.0734 297.93 100.723 297.93 102.63C297.93 105.27 298.517 107.47 299.69 109.23C300.864 110.99 302.33 112.493 304.09 113.74C305.924 114.987 307.72 116.087 309.48 117.04C311.534 118.213 313.55 119.533 315.53 121C317.51 122.467 319.27 124.117 320.81 125.95C322.424 127.783 323.67 129.947 324.55 132.44C325.504 134.933 325.98 137.867 325.98 141.24C325.98 144.687 325.357 147.84 324.11 150.7C322.937 153.56 320.957 155.833 318.17 157.52C315.457 159.207 311.754 160.05 307.06 160.05Z" fill="white"/>
</svg>
