<svg width="809" height="89" viewBox="0 0 809 89" fill="none" xmlns="http://www.w3.org/2000/svg">
<path d="M29.1601 87.23L6.59237e-05 2.02998H26.0401L44.4001 64.79L66.0001 2.02998H90.6001L112.2 64.79L130.56 2.02998H155.4L126.24 87.23H97.2001L77.5201 29.39L57.8401 87.23H29.1601ZM160.125 87.23V1.42998H171.695V87.23H160.125ZM165.585 87.23V77.22H194.575V87.23H165.585ZM165.585 48.23V38.61H191.715V48.23H165.585ZM165.585 11.44V1.42998H194.575V11.44H165.585ZM236.757 87.23L252.487 1.42998H270.557L286.157 87.23H274.067L262.107 11.18H260.807L248.717 87.23H236.757ZM247.807 68.77V59.93H275.367V68.77H247.807ZM292.674 87.23V1.42998H311.134C313.821 1.42998 316.421 1.73331 318.934 2.33997C321.448 2.94664 323.744 3.89998 325.824 5.19998C327.991 6.41331 329.854 8.01664 331.414 10.01C333.061 11.9166 334.318 14.2133 335.184 16.9C336.051 19.5866 336.484 22.75 336.484 26.39C336.484 29.0766 336.181 31.6766 335.574 34.19C334.968 36.6166 333.971 38.87 332.584 40.95C331.198 42.9433 329.378 44.6333 327.124 46.02C324.871 47.4066 322.054 48.4033 318.674 49.01V50.18C321.968 50.44 324.611 51.1766 326.604 52.39C328.598 53.6033 330.158 55.4233 331.284 57.85C332.498 60.2766 333.451 63.44 334.144 67.34L338.044 87.23H325.954L322.704 68.51C322.358 65.91 321.838 63.57 321.144 61.49C320.451 59.41 319.281 57.7633 317.634 56.55C316.074 55.3366 313.734 54.73 310.614 54.73H304.244V87.23H292.674ZM304.244 45.76H308.794C314.168 45.76 318.154 44.33 320.754 41.47C323.441 38.5233 324.784 34.0166 324.784 27.95C324.784 22.3166 323.614 18.1566 321.274 15.47C319.021 12.6966 315.381 11.31 310.354 11.31H304.244V45.76ZM346.441 87.23V1.42998H358.011V87.23H346.441ZM351.901 87.23V77.22H380.891V87.23H351.901ZM351.901 48.23V38.61H378.031V48.23H351.901ZM351.901 11.44V1.42998H380.891V11.44H351.901ZM428.083 87.23V2.02998H507.283V19.79H452.083V35.63H501.883V52.67H452.083V69.47H508.123V87.23H428.083ZM517.267 87.23V1.42998H533.127L556.137 71.89H556.917L556.397 1.42998H567.577V87.23H551.717L528.707 16.12H527.927L528.447 87.23H517.267ZM585.662 87.23V77.35H596.972C600.352 77.35 603.125 76.2666 605.292 74.1C607.459 71.8466 609.062 68.2933 610.102 63.44C611.229 58.5 611.792 52.0433 611.792 44.07C611.792 38.1766 611.445 33.15 610.752 28.99C610.145 24.7433 609.149 21.32 607.762 18.72C606.462 16.12 604.772 14.2566 602.692 13.13C600.699 11.9166 598.315 11.31 595.542 11.31H585.662V1.42998H595.412C601.652 1.42998 606.852 3.11998 611.012 6.49997C615.172 9.79331 618.292 14.6466 620.372 21.06C622.452 27.4733 623.492 35.23 623.492 44.33C623.492 51.2633 622.929 57.2433 621.802 62.27C620.762 67.21 619.332 71.3266 617.512 74.62C615.692 77.8266 613.655 80.3833 611.402 82.29C609.235 84.11 606.939 85.41 604.512 86.19C602.172 86.8833 599.875 87.23 597.622 87.23H585.662ZM579.032 87.23V1.42998H590.602V87.23H579.032ZM632.672 87.23V1.42998H644.242V87.23H632.672ZM636.832 87.23V76.83H667.382V87.23H636.832ZM672.856 87.23V1.42998H684.426V87.23H672.856ZM678.316 87.23V77.22H707.306V87.23H678.316ZM678.316 48.23V38.61H704.446V48.23H678.316ZM678.316 11.44V1.42998H707.306V11.44H678.316ZM734.195 88.66C729.169 88.66 725.052 87.7933 721.845 86.06C718.725 84.3266 716.342 81.9866 714.695 79.04C713.135 76.0933 712.225 72.8433 711.965 69.29C711.792 65.65 712.095 62.01 712.875 58.37L723.535 57.2C722.929 61.2733 722.842 65 723.275 68.38C723.709 71.6733 724.835 74.3166 726.655 76.31C728.475 78.2166 731.075 79.17 734.455 79.17C736.449 79.17 738.225 78.78 739.785 78C741.345 77.1333 742.559 75.8333 743.425 74.1C744.379 72.28 744.855 69.8533 744.855 66.82C744.855 63.0933 744.249 60.06 743.035 57.72C741.822 55.38 740.089 53.3433 737.835 51.61C735.669 49.79 733.069 48.0566 730.035 46.41C727.695 44.9366 725.442 43.4633 723.275 41.99C721.109 40.43 719.159 38.6966 717.425 36.79C715.692 34.8833 714.349 32.6733 713.395 30.16C712.442 27.6466 711.965 24.7433 711.965 21.45C711.965 17.29 712.745 13.6066 714.305 10.4C715.952 7.10665 718.379 4.54998 721.585 2.72998C724.879 0.909979 728.952 -2.00272e-05 733.805 -2.00272e-05C739.179 -2.00272e-05 743.512 1.16998 746.805 3.50997C750.099 5.76331 752.395 8.92664 753.695 13C755.082 17.0733 755.429 21.84 754.735 27.3L743.945 28.47C744.292 25.87 744.335 23.4433 744.075 21.19C743.815 18.9366 743.252 16.9433 742.385 15.21C741.605 13.4766 740.479 12.1333 739.005 11.18C737.532 10.2266 735.755 9.74998 733.675 9.74998C731.509 9.74998 729.645 10.2266 728.085 11.18C726.612 12.0466 725.442 13.3033 724.575 14.95C723.795 16.5966 723.405 18.5466 723.405 20.8C723.405 23.92 724.099 26.52 725.485 28.6C726.872 30.68 728.605 32.4566 730.685 33.93C732.852 35.4033 734.975 36.7033 737.055 37.83C739.482 39.2166 741.865 40.7766 744.205 42.51C746.545 44.2433 748.625 46.1933 750.445 48.36C752.352 50.5266 753.825 53.0833 754.865 56.03C755.992 58.9766 756.555 62.4433 756.555 66.43C756.555 70.5033 755.819 74.23 754.345 77.61C752.959 80.99 750.619 83.6766 747.325 85.67C744.119 87.6633 739.742 88.66 734.195 88.66ZM785.677 88.66C780.651 88.66 776.534 87.7933 773.327 86.06C770.207 84.3266 767.824 81.9866 766.177 79.04C764.617 76.0933 763.707 72.8433 763.447 69.29C763.274 65.65 763.577 62.01 764.357 58.37L775.017 57.2C774.411 61.2733 774.324 65 774.757 68.38C775.191 71.6733 776.317 74.3166 778.137 76.31C779.957 78.2166 782.557 79.17 785.937 79.17C787.931 79.17 789.707 78.78 791.267 78C792.827 77.1333 794.041 75.8333 794.907 74.1C795.861 72.28 796.337 69.8533 796.337 66.82C796.337 63.0933 795.731 60.06 794.517 57.72C793.304 55.38 791.571 53.3433 789.317 51.61C787.151 49.79 784.551 48.0566 781.517 46.41C779.177 44.9366 776.924 43.4633 774.757 41.99C772.591 40.43 770.641 38.6966 768.907 36.79C767.174 34.8833 765.831 32.6733 764.877 30.16C763.924 27.6466 763.447 24.7433 763.447 21.45C763.447 17.29 764.227 13.6066 765.787 10.4C767.434 7.10665 769.861 4.54998 773.067 2.72998C776.361 0.909979 780.434 -2.00272e-05 785.287 -2.00272e-05C790.661 -2.00272e-05 794.994 1.16998 798.287 3.50997C801.581 5.76331 803.877 8.92664 805.177 13C806.564 17.0733 806.911 21.84 806.217 27.3L795.427 28.47C795.774 25.87 795.817 23.4433 795.557 21.19C795.297 18.9366 794.734 16.9433 793.867 15.21C793.087 13.4766 791.961 12.1333 790.487 11.18C789.014 10.2266 787.237 9.74998 785.157 9.74998C782.991 9.74998 781.127 10.2266 779.567 11.18C778.094 12.0466 776.924 13.3033 776.057 14.95C775.277 16.5966 774.887 18.5466 774.887 20.8C774.887 23.92 775.581 26.52 776.967 28.6C778.354 30.68 780.087 32.4566 782.167 33.93C784.334 35.4033 786.457 36.7033 788.537 37.83C790.964 39.2166 793.347 40.7766 795.687 42.51C798.027 44.2433 800.107 46.1933 801.927 48.36C803.834 50.5266 805.307 53.0833 806.347 56.03C807.474 58.9766 808.037 62.4433 808.037 66.43C808.037 70.5033 807.301 74.23 805.827 77.61C804.441 80.99 802.101 83.6766 798.807 85.67C795.601 87.6633 791.224 88.66 785.677 88.66Z" fill="white"/>
</svg>
