<svg width="52" height="52" viewBox="0 0 52 52" fill="none" xmlns="http://www.w3.org/2000/svg">
<path d="M22.6793 0.216863C58.4628 -3.7909 62.8363 49.0431 28.3573 51.8876C-6.00116 54.719 -10.6204 3.94808 22.6793 0.216863ZM39.7088 17.2576C35.3889 16.7571 32.9006 14.0443 32.1902 9.93998H27.2181C26.7624 10.256 26.8339 10.796 26.7803 11.2657C26.0387 17.3322 27.4057 24.8561 26.825 31.0631C26.204 37.6563 17.0817 36.2341 17.8902 30.2027C18.27 27.3626 21.0263 26.3222 23.6755 26.432V21.1644C12.726 20.0845 8.05313 33.7627 17.2738 39.5307C20.1909 41.3568 23.0143 41.2076 26.1593 40.0619C34.4731 37.0242 32.0562 27.5118 32.3779 20.7122C32.914 20.0274 32.8916 20.4796 33.3562 20.6464C35.4023 21.3707 37.2875 22.85 39.7624 22.4856L39.7177 17.2576H39.7088Z" fill="#E3151A"/>
</svg>
