<svg width="52" height="52" viewBox="0 0 52 52" fill="none" xmlns="http://www.w3.org/2000/svg">
<path d="M22.639 0.215543C58.4538 -3.77905 62.8675 49.0374 28.317 51.8863C-5.92974 54.7089 -10.6562 3.93359 22.639 0.215543ZM18.1627 10.742C14.017 11.2995 10.9881 13.8367 10.3359 17.9761C9.80429 21.343 9.87576 30.1706 10.2332 33.6692C10.7112 38.3618 13.7311 41.3204 18.4978 41.7901C22.1252 42.1456 30.0861 42.1808 33.6823 41.7989C37.2785 41.417 40.1689 39.446 41.2679 36.0835C42.4606 32.4445 42.4204 19.2799 40.9551 15.7681C40.1287 13.784 38.7661 12.41 36.7558 11.5541C33.5706 10.202 21.8751 10.2372 18.1582 10.742H18.1627Z" fill="#E3151A"/>
<path d="M37.3265 15.1668C39.4172 17.3177 39.4172 25.7898 39.2877 28.8669C39.1849 31.2154 38.975 35.8509 37.264 37.4136C34.798 39.6655 23.8128 39.4767 20.2612 39.1782C17.831 38.9719 14.543 38.1291 13.5691 35.6577C12.4657 32.8571 12.5193 20.0744 13.587 17.2255C15.4633 12.2301 25.4166 12.9412 30.1207 13.2441C32.2248 13.3802 35.8791 13.6831 37.3221 15.1668H37.3265ZM33.1227 19.2974C35.1599 21.2947 37.9207 17.3704 35.2358 16.093C33.2568 15.1492 31.7423 17.941 33.1227 19.2974ZM24.8626 18.1869C14.8736 19.6091 15.9011 34.9203 26.52 34.354C37.5186 33.7658 35.9729 16.6022 24.8626 18.1869Z" fill="#E3151A"/>
<path d="M24.3951 21.2597C33.4995 19.2141 33.6693 33.5463 24.0645 31.053C19.5123 29.8722 19.9009 22.2693 24.3951 21.2597Z" fill="#E3151A"/>
</svg>
