<svg width="52" height="53" viewBox="0 0 52 53" fill="none" xmlns="http://www.w3.org/2000/svg">
<path d="M23.2626 0.165621C58.4753 -3.33548 62.4612 49.7988 28.9268 52.8567C-6.41092 56.0802 -10.6334 3.53688 23.2626 0.165621ZM13.8579 9.07507C9.58187 10.0153 10.8004 17.7114 16.3441 16.0549C19.8971 14.9938 19.1427 7.9155 13.8579 9.07507ZM42.0986 39.882V25.3314C42.0986 24.6285 40.7997 21.6289 40.2463 20.9215C37.6574 17.595 30.8818 18.092 28.4804 21.5259L28.2572 19.2873H22.0083V39.882L28.5161 39.4478C28.9803 38.8344 28.4358 29.034 28.7304 27.1491C29.2347 23.9212 33.8634 23.0884 35.0686 25.6672C35.1891 25.9269 35.8497 28.3222 35.8497 28.4654V39.882H42.0986ZM17.9956 19.2873H11.7467V39.882H17.9956V19.2873Z" fill="#E3151A"/>
</svg>
