<?xml version="1.0" encoding="UTF-8"?>
<svg id="Warstwa_1" xmlns="http://www.w3.org/2000/svg" version="1.1" viewBox="0 0 465.57 103.71">
  <!-- Generator: Adobe Illustrator 29.5.1, SVG Export Plug-In . SVG Version: 2.1.0 Build 141)  -->
  <defs>
    <style>
      .st0 {
        fill: #e30518;
      }
    </style>
  </defs>
  <path class="st0" d="M106.08,30.78c.53.37,1.09.68,1.6,1.08,7.82,5.98,15,14.08,22.87,20.03.49.37.97.93,1.66.82v-21.52l.4-.4h17.42c.09,0,.41.35.67.27v42.11l-.4.4h-19.56l-23.98-20.99-1.61-.93v21.52l-.4.4h-17.82V30.78h19.16Z"/>
  <path class="st0" d="M163.57,31.18l.92-.41c14.23.94,30.18-1.34,44.2.31,28.65,3.38,26.52,41.06-1.03,42.49h-44.1V31.18ZM197.2,40.41c-4.07-.39-8.72.29-12.86,0l-.4.4v22.86h15.14c1.2,0,5.39-2.54,6.3-3.61,6.41-7.5,1.88-18.69-8.18-19.66Z"/>
  <path class="st0" d="M33.32,47.36c.26-.09.58.27.67.27h27.47v9.36h-27.47c-.09,0-.41.35-.67.27v6.28l.4.4h42.88l.4.4v8.82l-.4.4H13.35l-.4-.4V31.18l.4-.4h62.71l.4.4v8.82l-.4.4h-42.34l-.4.4v6.55Z"/>
  <path class="st0" d="M376.63,40.41h-42.61c-.26,2.13-.84,5.37.4,7.22h27.47v9.36h-27.87c-.43,2.2-.43,4.76,0,6.95h43.42v9.63h-63.78V30.78h62.58l.4.4v9.22Z"/>
  <path class="st0" d="M440.94,61.53c-2.69-1.03-5.37-2.08-8.23-2.6s-5.39-.45-8.25-.59c-4.37-.22-12.24-.93-16.32,0-2.93.67-2.42,4.72,1.12,5.27,3.96.62,9.9-.06,14.15.05,6.99.19,15.09.09,20.54,5.11,7.68,7.08,3.6,19.19-6.07,21.65-14.45-.89-30.22,1.13-44.51,0-2.92-.23-5.97-1.75-8.7-2.69l6.87-9.87c3.11,2.19,6.73,3.53,10.48,4.2,5.07.9,16.81,1.2,21.89.57,2.36-.29,5.33-2.36,3.22-4.77-1.03-1.18-3.27-1.27-4.8-1.37-9.94-.6-31.24,2.3-35.18-9.83-3.18-9.81,4.91-17.43,14.25-18.25s20.71.67,30.57,0c1.79.23,13.6,2.02,13.73,3.62l-4.78,9.49Z"/>
  <path class="st0" d="M437.6,12.87c4.72.9,9.83,6.54,10.32,11.37,1.19,11.73-11.01,15.7-20.49,16.19-10.84.56-25.42.27-35.85-2.5-2.35-.62-4.64-1.5-6.91-2.33l6.87-9.87c2.2,1.43,4.46,2.66,7.01,3.38,5.85,1.65,18.71,2.06,24.82,1.39,1.99-.22,5.23-1.43,4.3-3.97-1.12-3.06-8.5-2.07-11.25-2.14-8.08-.21-23.36.44-28.17-7.46-.55-.91-1.71-3.17-1.03-4.05h50.38Z"/>
  <polygon class="st0" points="239.95 73.56 239.95 30.78 259.65 30.78 260.05 31.18 260.05 63.54 260.45 63.94 303.33 63.94 303.73 64.34 303.73 73.16 303.33 73.56 239.95 73.56"/>
</svg>