<svg width="606" height="189" viewBox="0 0 606 189" fill="none" xmlns="http://www.w3.org/2000/svg">
<path d="M605.337 124.772C590.422 131.159 575.942 139.028 561.81 147.42C518.555 173.082 486.34 205.629 435.269 177.651C352.156 132.105 309.391 -10.4847 198.527 35.0863C162.393 49.9405 135.621 76.6854 103.504 98.5744C75.9488 117.363 50.1898 132.802 27.2941 96.4079C10.0162 68.9533 8.53553 31.6373 0 -0.00088501H19.5751C23.5489 25.8476 29.8526 56.8882 45.1491 77.2706C74.7403 116.716 123.264 71.1571 151.778 51.2727C203.797 14.9902 258.646 -16.4239 316.479 26.4452C366.799 63.7363 424.991 163.992 489.204 161.403C515.017 160.357 539.622 138.58 561.102 124.286C575.495 114.711 590.171 105.709 605.326 97.7776V124.784L605.337 124.772Z" fill="white"/>
<path d="M605 48.584C603.464 48.9924 601.881 50.3266 600.524 51.2796C555.339 83.2048 528.843 136.096 467.779 115.28C406.715 94.4637 368.244 32.0837 316 -3H360.602C399.037 31.6208 438.199 75.7034 487.134 89.794C535.175 103.626 561.22 63.968 594.013 32.3151C596.084 30.3138 603.405 24.8137 604.441 23.18L604.988 48.584H605Z" fill="white"/>
<path d="M51.1262 -0.00088501C51.9101 5.15387 53.9895 10.5701 55.9274 15.314C74.6316 61.2709 101.675 58.6687 137.614 38.8092C157.951 27.5658 177.123 13.4587 196.339 -0.00088501H214.292C189.48 13.1101 167.27 31.3883 143.754 47.0642C124.604 59.8266 93.1942 81.1429 70.734 71.6801C47.7621 61.9931 36.0584 25.3371 32.6289 -0.00088501H51.1153H51.1262Z" fill="white"/>
<path d="M448.516 -4.98492C461.973 3.50363 476.096 11.1177 490.683 16.832C506.614 23.059 526.827 29.3161 543.516 24.7175C557.931 20.737 570.178 7.5142 579.38 -4.98492H592C575.75 16.8622 555.79 46.8058 529.141 51.2988C505.949 55.2039 476.468 42.0263 455.683 30.854C436.92 20.7823 418.968 8.49423 402 -5H448.503L448.516 -4.98492Z" fill="white"/>
<path d="M87.5649 -0.000885089C107.554 26.1589 141.337 14.156 164.254 -0.000885089H181.663C173.835 5.56475 165.898 10.9187 157.744 15.8369C128.588 33.4428 95.371 51.7085 71.3539 13.8447C68.643 9.57401 66.324 4.95465 64.7236 -0.0133362H87.5649V-0.000885089Z" fill="white"/>
<path d="M141.413 -0.00088501C131.81 3.2613 119.878 4.00837 110.417 -0.00088501H141.413Z" fill="white"/>
</svg>
